<?xml version="1.0" encoding="UTF-8" standalone="no"?>
<svg
   xmlns:dc="http://purl.org/dc/elements/1.1/"
   xmlns:cc="http://creativecommons.org/ns#"
   xmlns:rdf="http://www.w3.org/1999/02/22-rdf-syntax-ns#"
   xmlns:svg="http://www.w3.org/2000/svg"
   xmlns="http://www.w3.org/2000/svg"
   xmlns:sodipodi="http://sodipodi.sourceforge.net/DTD/sodipodi-0.dtd"
   xmlns:inkscape="http://www.inkscape.org/namespaces/inkscape"
   width="24"
   height="24"
   viewBox="0 0 24 24"
   focusable="false"
   role="presentation"
   version="1.1"
   id="svg123"
   sodipodi:docname="logo.svg"
   inkscape:version="1.0beta1 (32d4812, 2019-09-19)">
  <metadata
     id="metadata129">
    <rdf:RDF>
      <cc:Work
         rdf:about="">
        <dc:format>image/svg+xml</dc:format>
        <dc:type
           rdf:resource="http://purl.org/dc/dcmitype/StillImage" />
      </cc:Work>
    </rdf:RDF>
  </metadata>
  <defs
     id="defs127" />
  <sodipodi:namedview
     pagecolor="#ffffff"
     bordercolor="#666666"
     inkscape:document-rotation="0"
     borderopacity="1"
     objecttolerance="10"
     gridtolerance="10"
     guidetolerance="10"
     inkscape:pageopacity="0"
     inkscape:pageshadow="2"
     inkscape:window-width="1440"
     inkscape:window-height="855"
     id="namedview125"
     showgrid="false"
     inkscape:zoom="22.4"
     inkscape:cx="16.581175"
     inkscape:cy="9.9570258"
     inkscape:window-x="0"
     inkscape:window-y="23"
     inkscape:window-maximized="0"
     inkscape:current-layer="svg123" />
  <g
     id="#111111b5"
     transform="scale(0.18666295,0.18805804)">
    <path
       fill="#111111"
       opacity="0.71"
       d="m 56.2,0 h 6.93 c -1.73,2.05 -4.1,2.3 -7.12,0.75 z"
       id="path10"
       inkscape:connector-curvature="0" />
    <path
       fill="#111111"
       opacity="0.71"
       d="m 64.81,0 h 7.01 l 0.16,0.74 C 69.55,2.09 67.16,1.84 64.81,0 Z"
       id="path12"
       inkscape:connector-curvature="0" />
  </g>
  <g
     id="#202020fd"
     transform="scale(0.18666295,0.18805804)">
    <path
       fill="#202020"
       opacity="1.00"
       d="m 63.13,0 h 1.68 c 2.35,1.84 4.74,2.09 7.17,0.74 13.61,1.34 26.43,7.77 36.29,17.13 -1.04,0.37 -2.19,1.04 -3.07,-0.03 C 93.07,9.16 77.51,11.64 63.58,9.58 58.19,10.73 55.43,4.22 49.97,5.97 c -5.82,0.13 -7.46,7.28 -12,9.99 -5,7.55 -11.45,14.04 -16.05,21.88 -3.99,9.45 -7.18,19.62 -5.63,30.05 1.47,5.36 -2.23,10.58 -1.2,16.02 2.67,8.17 8.39,14.89 13.17,21.88 3.89,6.66 11.51,9.74 16.51,15.44 9.09,5.5 20.46,1.77 28.4,-4.07 7.73,-5.66 15.62,-11.06 23.51,-16.49 4.65,-5.05 9.66,-10.13 12.58,-16.46 5.89,-11.76 3.94,-25.19 5.24,-37.83 0.4,-7 1.92,-15.18 -2.7,-21.18 -1.13,-1.36 -1.85,-2.89 -0.67,-4.48 3.04,3.42 5.45,7.34 8.02,11.12 -2.24,8.87 0.01,18.16 0.03,27.15 0.45,4.62 0.12,9.27 0.65,13.88 -1.11,2.29 -2.34,4.54 -2.95,7.04 -1.6,8.23 -6.71,15.52 -12.84,21.14 -6.02,8.97 -17.62,10.65 -25.36,17.6 -3.63,2.64 -6.82,6.8 -11.74,6.6 0.72,0.57 1.46,1.13 2.2,1.68 -4.05,0.03 -8.1,0.07 -12.15,0.13 -9.66,-0.17 -18.55,-4.53 -26.86,-9.06 1.74,-4 -5.16,-5.17 -6.3,-8.85 -4.22,-3.31 -6.17,-8.38 -9.32,-12.58 C 12.2,92.42 11.85,87.62 11.21,83.01 12.35,77.47 11.1,71.86 10.66,66.31 8.85,56.53 12.24,46.81 15.59,37.77 16.74,33.88 20.07,31.19 21.4,27.35 26.84,22.38 31.45,16.59 35.32,10.31 36.32,8.62 38.14,7.95 40,7.71 39.22,7.07 38.43,6.44 37.63,5.82 43.36,2.92 49.67,1.56 56.01,0.75 59.03,2.3 61.4,2.05 63.13,0 Z"
       id="path15"
       inkscape:connector-curvature="0" />
  </g>
  <g
     id="#171717fa"
     transform="scale(0.18666295,0.18805804)">
    <path
       fill="#171717"
       opacity="0.98"
       d="M 0.95,55.98 C 2.77,34.2 17.84,14.66 37.63,5.82 c 0.8,0.62 1.59,1.25 2.37,1.89 -1.86,0.24 -3.68,0.91 -4.68,2.6 -3.87,6.28 -8.48,12.07 -13.92,17.04 -1.33,3.84 -4.66,6.53 -5.81,10.42 -3.35,9.04 -6.74,18.76 -4.93,28.54 0.44,5.55 1.69,11.16 0.55,16.7 0.64,4.61 0.99,9.41 3.3,13.56 3.15,4.2 5.1,9.27 9.32,12.58 1.14,3.68 8.04,4.85 6.3,8.85 C 13.98,108.34 2.9,90.72 0.93,72.04 0.97,66.69 1.05,61.34 0.95,55.98 Z"
       id="path18"
       inkscape:connector-curvature="0" />
  </g>
  <g
     id="#2c2c2cff"
     transform="scale(0.18666295,0.18805804)">
    <path
       fill="#2c2c2c"
       opacity="1.00"
       d="m 37.97,15.96 c 4.54,-2.71 6.18,-9.86 12,-9.99 5.46,-1.75 8.22,4.76 13.61,3.61 13.93,2.06 29.49,-0.42 41.62,8.26 0.88,1.07 2.03,0.4 3.07,0.03 1.01,0.89 1.97,1.84 2.86,2.85 -1.18,1.59 -0.46,3.12 0.67,4.48 4.62,6 3.1,14.18 2.7,21.18 -1.3,12.64 0.65,26.07 -5.24,37.83 -2.92,6.33 -7.93,11.41 -12.58,16.46 -7.89,5.43 -15.78,10.83 -23.51,16.49 -7.94,5.84 -19.31,9.57 -28.4,4.07 -5,-5.7 -12.62,-8.78 -16.51,-15.44 C 23.48,98.8 17.76,92.08 15.09,83.91 14.06,78.47 17.76,73.25 16.29,67.89 14.74,57.46 17.93,47.29 21.92,37.84 26.52,30 32.97,23.51 37.97,15.96 m 1.31,3.29 C 35.61,27.38 27.01,32.51 23.98,41 c -1.16,6.92 -6.26,13.83 -4.3,21 -1.01,5.4 -0.63,11 -2.19,16.31 1.13,9.91 9,17.31 13.48,25.74 5.37,4.63 10.71,9.35 16.28,13.66 5.82,0.61 11.98,2.36 17.69,0.19 4.97,-1.68 8.75,-5.71 13.74,-7.31 4.37,-4.92 10.52,-7.35 14.98,-11.97 5.06,-4.04 8.66,-9.43 12.33,-14.63 4.99,-9.53 4.93,-20.57 5.06,-31.07 2.24,-0.51 0.53,-5.35 1.66,-7.2 1.34,-11.21 -5.06,-23.4 -15.64,-27.8 C 87.56,12.75 76.41,13.95 66,12.92 60.59,14.69 57.39,8.33 51.99,9.99 45.04,7.6 44,16.45 39.28,19.25 Z"
       id="path21"
       inkscape:connector-curvature="0" />
  </g>
  <g
     id="#3b3b3bff"
     transform="scale(0.18666295,0.18805804)">
    <path
       fill="#3b3b3b"
       opacity="1.00"
       d="M 39.28,19.25 C 44,16.45 45.04,7.6 51.99,9.99 c 5.4,-1.66 8.6,4.7 14.01,2.93 10.41,1.03 21.56,-0.17 31.07,5 10.58,4.4 16.98,16.59 15.64,27.8 -1.13,1.85 0.58,6.69 -1.66,7.2 0.67,-9.36 -0.96,-20.09 -8.24,-26.73 C 95.06,16.56 81.36,15.55 70,15.89 63.71,16.43 58.14,12.8 52.07,12.07 42.03,15.53 38.4,27.11 30.78,33.77 22.8,44.42 20.77,58.09 20.91,71.06 c -2.51,4.66 -1.97,10.6 1.32,14.72 4.75,6.29 7.29,14.37 13.71,19.27 4.81,3.52 8.88,8.78 15.13,9.69 5.11,-1.1 10.48,2.68 15.32,-0.25 5.04,-2.78 11.25,-4.84 14.85,-9.4 3.59,-3.01 7.61,-5.49 10.96,-8.77 4.28,-1.92 6.25,-6.57 9.21,-9.96 6.81,-8.2 6.63,-19.44 7.52,-29.48 l 0.26,-0.75 c 0.36,-0.99 0.7,-1.99 0.99,-3 l 0.87,-0.21 c -0.13,10.5 -0.07,21.54 -5.06,31.07 -3.67,5.2 -7.27,10.59 -12.33,14.63 -4.46,4.62 -10.61,7.05 -14.98,11.97 -4.99,1.6 -8.77,5.63 -13.74,7.31 -5.71,2.17 -11.87,0.42 -17.69,-0.19 C 41.68,113.4 36.34,108.68 30.97,104.05 26.49,95.62 18.62,88.22 17.49,78.31 19.05,73 18.67,67.4 19.68,62 17.72,54.83 22.82,47.92 23.98,41 27.01,32.51 35.61,27.38 39.28,19.25 Z"
       id="path24"
       inkscape:connector-curvature="0" />
  </g>
  <g
     id="#49494aff"
     transform="scale(0.18666295,0.18805804)">
    <path
       fill="#49494a"
       opacity="1.00"
       d="m 30.78,33.77 c 7.62,-6.66 11.25,-18.24 21.29,-21.7 6.07,0.73 11.64,4.36 17.93,3.82 11.36,-0.34 25.06,0.67 32.81,10.3 7.28,6.64 8.91,17.37 8.24,26.73 l -0.87,0.21 C 110.73,42.27 106.69,30.88 97.7,24.34 87.85,15.22 73.22,18.94 61.01,17 c -2.05,-2.04 -4.97,-2.62 -7.8,-2.56 -5.39,0.97 -8.89,5.59 -12.22,9.55 -2.7,3.49 -5.74,6.75 -7.95,10.6 -4.89,3.83 -7.46,10.29 -8.05,16.39 -4.69,5.46 -0.04,14.25 -4.08,20.08 -0.14,-12.97 1.89,-26.64 9.87,-37.29 z"
       id="path27"
       inkscape:connector-curvature="0" />
  </g>
  <g
     id="#5c5c5cff"
     transform="scale(0.18666295,0.18805804)">
    <path
       fill="#5c5c5c"
       opacity="1.00"
       d="m 53.21,14.44 c 2.83,-0.06 5.75,0.52 7.8,2.56 -6.82,-2.13 -16.01,0.65 -18,8.14 -0.75,1.41 -3.45,2.56 -2.08,4.32 -2.33,2.45 -4.84,4.76 -6.76,7.57 -0.28,-0.61 -0.85,-1.83 -1.13,-2.44 2.21,-3.85 5.25,-7.11 7.95,-10.6 3.33,-3.96 6.83,-8.58 12.22,-9.55 z"
       id="path30"
       inkscape:connector-curvature="0" />
  </g>
  <g
     id="#6a6a6aff"
     transform="scale(0.18666295,0.18805804)">
    <path
       fill="#6a6a6a"
       opacity="1.00"
       d="M 43.01,25.14 C 45,17.65 54.19,14.87 61.01,17 c 9.3,4.19 20.3,-0.48 29.31,4.67 12.45,6.52 19.71,20.59 18.87,34.46 l -0.26,0.75 c -0.63,1.43 -1.16,2.9 -1.72,4.36 5,-20.66 -14.38,-45.15 -36.22,-40.42 -6.22,0.47 -11.71,-3.51 -17.91,-2.75 -4.19,0.94 -6.96,4.38 -10.07,7.07 z"
       id="path33"
       inkscape:connector-curvature="0" />
  </g>
  <g
     id="#585858ff"
     transform="scale(0.18666295,0.18805804)">
    <path
       fill="#585858"
       opacity="1.00"
       d="m 61.01,17 c 12.21,1.94 26.84,-1.78 36.69,7.34 8.99,6.54 13.03,17.93 12.48,28.79 -0.29,1.01 -0.63,2.01 -0.99,3 C 110.03,42.26 102.77,28.19 90.32,21.67 81.31,16.52 70.31,21.19 61.01,17 Z"
       id="path36"
       inkscape:connector-curvature="0" />
  </g>
  <g
     id="#7f7f7fff"
     transform="scale(0.18666295,0.18805804)">
    <path
       fill="#7f7f7f"
       opacity="1.00"
       d="m 43.01,25.14 c 3.11,-2.69 5.88,-6.13 10.07,-7.07 6.2,-0.76 11.69,3.22 17.91,2.75 21.84,-4.73 41.22,19.76 36.22,40.42 L 106.2,61.05 C 105.55,55.04 107.5,48.4 104.07,42.96 98.69,32.11 88.29,20.83 75.11,21.97 70.25,21.68 65.07,22.81 60.57,20.51 c -5.6,-1.57 -12.44,0.34 -15.65,5.38 0.56,0.09 1.68,0.28 2.23,0.38 -2.03,1.15 -4.1,2.22 -6.22,3.19 -1.37,-1.76 1.33,-2.91 2.08,-4.32 z"
       id="path39"
       inkscape:connector-curvature="0" />
  </g>
  <g
     id="#9e9f9fff"
     transform="scale(0.18666295,0.18805804)">
    <path
       fill="#9e9f9f"
       opacity="1.00"
       d="m 44.92,25.89 c 3.21,-5.04 10.05,-6.95 15.65,-5.38 4.5,2.3 9.68,1.17 14.54,1.46 l -0.25,0.83 c -0.53,0.28 -1.59,0.83 -2.11,1.11 -0.39,-0.04 -1.16,-0.13 -1.54,-0.17 -4.08,-0.53 -8.46,-1.47 -12.48,-0.1 -3.88,0.78 -7.74,1.67 -11.58,2.63 -0.55,-0.1 -1.67,-0.29 -2.23,-0.38 z"
       id="path42"
       inkscape:connector-curvature="0" />
  </g>
  <g
     id="#959595ff"
     transform="scale(0.18666295,0.18805804)">
    <path
       fill="#959595"
       opacity="1.00"
       d="m 75.11,21.97 c 13.18,-1.14 23.58,10.14 28.96,20.99 3.43,5.44 1.48,12.08 2.13,18.09 -0.61,1.76 -1.31,3.5 -2.07,5.2 0.07,-6.86 2.56,-14.15 -0.79,-20.57 C 98.9,33.81 87.98,23.31 74.86,22.8 Z"
       id="path45"
       inkscape:connector-curvature="0" />
  </g>
  <g
     id="#626262ff"
     transform="scale(0.18666295,0.18805804)">
    <path
       fill="#626262"
       opacity="1.00"
       d="m 58.73,23.64 c 4.02,-1.37 8.4,-0.43 12.48,0.1 -4.16,0.11 -8.32,0.07 -12.48,-0.1 z"
       id="path48"
       inkscape:connector-curvature="0" />
  </g>
  <g
     id="#abacacff"
     transform="scale(0.18666295,0.18805804)">
    <path
       fill="#abacac"
       opacity="1.00"
       d="m 72.75,23.91 c 0.52,-0.28 1.58,-0.83 2.11,-1.11 13.12,0.51 24.04,11.01 28.48,22.88 3.35,6.42 0.86,13.71 0.79,20.57 l -1.18,-0.34 c 1.2,-8.47 1.85,-17.84 -3.88,-24.95 -1.79,-1.33 -3.48,-7.87 -6.51,-5.99 -2.21,-2.01 -4.07,-4.48 -6.67,-6.01 -4.03,-2.52 -8.68,-3.6 -13.14,-5.05 z"
       id="path51"
       inkscape:connector-curvature="0" />
  </g>
  <g
     id="#010101ff"
     transform="scale(0.18666295,0.18805804)">
    <path
       fill="#010101"
       opacity="1.00"
       d="m 47.15,26.27 c 3.84,-0.96 7.7,-1.85 11.58,-2.63 4.16,0.17 8.32,0.21 12.48,0.1 0.38,0.04 1.15,0.13 1.54,0.17 4.46,1.45 9.11,2.53 13.14,5.05 -0.14,0.47 -0.42,1.4 -0.56,1.87 5.93,4.55 9.99,11.52 10.85,18.97 1.55,0.15 0.82,-2.83 1.47,-3.96 2.14,8.13 2.76,16.58 2.17,24.95 -0.51,3.72 -1.37,7.37 -2.13,11.05 -1.44,3.44 -2.89,6.91 -4.84,10.1 -3.52,3.43 -7.09,7.07 -11.84,8.74 -3.92,1.61 -8.17,2.09 -12.26,3.06 -9.26,0.93 -18.61,-0.9 -26.84,-5.16 -4.28,-4 -8.27,-8.3 -10.67,-13.73 -2.21,-5.61 -2.49,-11.74 -3.46,-17.63 0.11,-4.01 0.25,-8.01 0.42,-12.02 1.2,-6.25 2.34,-12.77 5.97,-18.17 1.92,-2.81 4.43,-5.12 6.76,-7.57 2.12,-0.97 4.19,-2.04 6.22,-3.19 m 7.84,-1.26 0.03,0.96 c 5.66,0.18 11.33,0.03 16.99,0.02 L 71.98,25.03 C 66.32,24.85 60.65,25 54.99,25.01 M 29.05,57.02 c -0.2,4.66 -0.05,9.32 -0.04,13.99 l 0.94,-0.03 c 0.2,-4.66 0.05,-9.33 0.04,-13.99 l -0.94,0.03 m 68.99,2 c 0.72,2.39 -2.3,8.97 0.92,8.96 -0.71,-2.39 2.28,-8.98 -0.92,-8.96 z"
       id="path54"
       inkscape:connector-curvature="0" />
  </g>
  <g
     id="#161617ff"
     transform="scale(0.18666295,0.18805804)">
    <path
       fill="#161617"
       opacity="1.00"
       d="M 54.99,25.01 C 60.65,25 66.32,24.85 71.98,25.03 l 0.03,0.96 C 66.35,26 60.68,26.15 55.02,25.97 Z"
       id="path57"
       inkscape:connector-curvature="0" />
  </g>
  <g
     id="#171717ff"
     transform="scale(0.18666295,0.18805804)">
    <path
       fill="#171717"
       opacity="1.00"
       d="m 85.89,28.96 c 2.6,1.53 4.46,4 6.67,6.01 1.93,3.5 4.2,6.92 5.09,10.87 -0.65,1.13 0.08,4.11 -1.47,3.96 -0.86,-7.45 -4.92,-14.42 -10.85,-18.97 0.14,-0.47 0.42,-1.4 0.56,-1.87 z"
       id="path60"
       inkscape:connector-curvature="0" />
  </g>
  <g
     id="#171717fb"
     transform="scale(0.18666295,0.18805804)">
    <path
       fill="#171717"
       opacity="1.00"
       d="m 119.15,31.84 c 4.24,7.34 7.1,15.67 7.92,24.12 -0.04,5.01 -0.1,10.04 -0.02,15.06 -2.07,28.75 -27.37,53.79 -56.04,56.05 -0.47,-0.03 -1.4,-0.1 -1.87,-0.14 -0.74,-0.55 -1.48,-1.11 -2.2,-1.68 4.92,0.2 8.11,-3.96 11.74,-6.6 7.74,-6.95 19.34,-8.63 25.36,-17.6 6.13,-5.62 11.24,-12.91 12.84,-21.14 0.61,-2.5 1.84,-4.75 2.95,-7.04 -0.53,-4.61 -0.2,-9.26 -0.65,-13.88 -0.02,-8.99 -2.27,-18.28 -0.03,-27.15 z"
       id="path63"
       inkscape:connector-curvature="0" />
  </g>
  <g
     id="#ccccccff"
     transform="scale(0.18666295,0.18805804)">
    <path
       fill="#cccccc"
       opacity="1.00"
       d="m 92.56,34.97 c 3.03,-1.88 4.72,4.66 6.51,5.99 5.73,7.11 5.08,16.48 3.88,24.95 -1.18,3.19 -1.59,6.59 -2.08,9.93 -1.9,0.3 -0.52,-3.67 -1.05,-5.05 0.59,-8.37 -0.03,-16.82 -2.17,-24.95 -0.89,-3.95 -3.16,-7.37 -5.09,-10.87 z"
       id="path66"
       inkscape:connector-curvature="0" />
  </g>
  <g
     id="#5a5a5aff"
     transform="scale(0.18666295,0.18805804)">
    <path
       fill="#5a5a5a"
       opacity="1.00"
       d="m 24.99,50.98 c 0.59,-6.1 3.16,-12.56 8.05,-16.39 -1,2.81 -2.73,5.25 -4.28,7.77 -0.9,3.02 -2.14,5.93 -3.77,8.62 z"
       id="path69"
       inkscape:connector-curvature="0" />
  </g>
  <g
     id="#6c6c6cff"
     transform="scale(0.18666295,0.18805804)">
    <path
       fill="#6c6c6c"
       opacity="1.00"
       d="m 33.04,34.59 c 0.28,0.61 0.85,1.83 1.13,2.44 -3.63,5.4 -4.77,11.92 -5.97,18.17 -0.07,-1.78 -0.14,-3.57 -0.29,-5.34 -2.31,2.36 -1.37,6.64 -1.76,9.82 l -0.18,1 c -0.43,1.39 -1.3,4.17 -1.73,5.55 -1.01,-5.16 0.51,-10.14 0.75,-15.25 1.63,-2.69 2.87,-5.6 3.77,-8.62 1.55,-2.52 3.28,-4.96 4.28,-7.77 z"
       id="path72"
       inkscape:connector-curvature="0" />
  </g>
  <g
     id="#8d8d8dff"
     transform="scale(0.18666295,0.18805804)">
    <path
       fill="#8d8d8d"
       opacity="1.00"
       d="m 26.15,59.68 c 0.39,-3.18 -0.55,-7.46 1.76,-9.82 0.15,1.77 0.22,3.56 0.29,5.34 -0.17,4.01 -0.31,8.01 -0.42,12.02 -0.46,-2.54 -0.63,-5.14 -1.63,-7.54 z"
       id="path75"
       inkscape:connector-curvature="0" />
  </g>
  <g
     id="#5a5a59ff"
     transform="scale(0.18666295,0.18805804)">
    <path
       fill="#5a5a59"
       opacity="1.00"
       d="m 20.91,71.06 c 4.04,-5.83 -0.61,-14.62 4.08,-20.08 -0.24,5.11 -1.76,10.09 -0.75,15.25 -0.4,2.51 -1.06,4.97 -1.59,7.45 -1.08,6.39 3.57,11.88 6.58,17.09 4.81,9.57 13.92,17.59 24.54,19.74 6.15,-1.45 14.54,1.64 19.41,-3.41 2.75,-1.99 6.05,-3.06 8.68,-5.19 -0.21,-0.31 -0.64,-0.93 -0.85,-1.23 4.75,-1.67 8.32,-5.31 11.84,-8.74 0.25,0.28 0.75,0.86 1,1.14 -0.56,1.08 -1.12,2.15 -1.65,3.24 -3.35,3.28 -7.37,5.76 -10.96,8.77 -5.28,2.29 -9.99,5.7 -15.35,7.83 -4.4,0.06 -8.75,-1.36 -13.14,-0.55 -7.78,-0.4 -12.9,-7.08 -18.58,-11.55 C 28.59,91.55 19.58,82.71 20.91,71.06 Z"
       id="path78"
       inkscape:connector-curvature="0" />
  </g>
  <g
     id="#0c0c0cab"
     transform="scale(0.18666295,0.18805804)">
    <path
       fill="#0c0c0c"
       opacity="0.67"
       d="m 0,56.01 0.95,-0.03 c 0.1,5.36 0.02,10.71 -0.02,16.06 L 0,71.96 Z"
       id="path81"
       inkscape:connector-curvature="0" />
  </g>
  <g
     id="#0b0b0b92"
     transform="scale(0.18666295,0.18805804)">
    <path
       fill="#0b0b0b"
       opacity="0.57"
       d="m 127.07,55.96 0.93,0.08 v 14.95 l -0.95,0.03 C 126.97,66 127.03,60.97 127.07,55.96 Z"
       id="path84"
       inkscape:connector-curvature="0" />
  </g>
  <g
     id="#1a1a1aff"
     transform="scale(0.18666295,0.18805804)">
    <path
       fill="#1a1a1a"
       opacity="1.00"
       d="m 29.05,57.02 0.94,-0.03 c 0.01,4.66 0.16,9.33 -0.04,13.99 l -0.94,0.03 C 29,66.34 28.85,61.68 29.05,57.02 Z"
       id="path87"
       inkscape:connector-curvature="0" />
  </g>
  <g
     id="#515050ff"
     transform="scale(0.18666295,0.18805804)">
    <path
       fill="#515050"
       opacity="1.00"
       d="m 107.21,61.24 c 0.56,-1.46 1.09,-2.93 1.72,-4.36 -0.89,10.04 -0.71,21.28 -7.52,29.48 -2.96,3.39 -4.93,8.04 -9.21,9.96 0.53,-1.09 1.09,-2.16 1.65,-3.24 3.37,-5.06 8.22,-9.34 9.85,-15.38 1.59,-5.39 2.47,-10.95 3.51,-16.46 z"
       id="path90"
       inkscape:connector-curvature="0" />
  </g>
  <g
     id="#1e1e1eff"
     transform="scale(0.18666295,0.18805804)">
    <path
       fill="#1e1e1e"
       opacity="1.00"
       d="m 98.04,59.02 c 3.2,-0.02 0.21,6.57 0.92,8.96 -3.22,0.01 -0.2,-6.57 -0.92,-8.96 z"
       id="path93"
       inkscape:connector-curvature="0" />
  </g>
  <g
     id="#a5a5a5ff"
     transform="scale(0.18666295,0.18805804)">
    <path
       fill="#a5a5a5"
       opacity="1.00"
       d="m 26.15,59.68 c 1,2.4 1.17,5 1.63,7.54 0.97,5.89 1.25,12.02 3.46,17.63 -0.09,0.57 -0.28,1.72 -0.38,2.29 -5.25,-7.78 -6.63,-17.25 -4.89,-26.46 z"
       id="path96"
       inkscape:connector-curvature="0" />
  </g>
  <g
     id="#858584ff"
     transform="scale(0.18666295,0.18805804)">
    <path
       fill="#858584"
       opacity="1.00"
       d="m 24.24,66.23 c 0.43,-1.38 1.3,-4.16 1.73,-5.55 -1.74,9.21 -0.36,18.68 4.89,26.46 0.1,-0.57 0.29,-1.72 0.38,-2.29 2.4,5.43 6.39,9.73 10.67,13.73 -0.62,3.06 3.35,4.46 5.1,6.49 -0.55,0.03 -1.66,0.09 -2.21,0.12 -3.19,-3.19 -6.79,-5.9 -10.32,-8.68 -4.92,-7.07 -8.6,-14.88 -11.83,-22.83 0.53,-2.48 1.19,-4.94 1.59,-7.45 z"
       id="path99"
       inkscape:connector-curvature="0" />
  </g>
  <g
     id="#6d6c6cff"
     transform="scale(0.18666295,0.18805804)">
    <path
       fill="#6d6c6c"
       opacity="1.00"
       d="m 106.2,61.05 1.01,0.19 c -1.04,5.51 -1.92,11.07 -3.51,16.46 -1.63,6.04 -6.48,10.32 -9.85,15.38 -0.25,-0.28 -0.75,-0.86 -1,-1.14 1.95,-3.19 3.4,-6.66 4.84,-10.1 0.12,0.57 0.34,1.71 0.45,2.28 4.25,-4.9 5.06,-11.69 5.99,-17.87 0.76,-1.7 1.46,-3.44 2.07,-5.2 z"
       id="path102"
       inkscape:connector-curvature="0" />
  </g>
  <g
     id="#8f8f8eff"
     transform="scale(0.18666295,0.18805804)">
    <path
       fill="#8f8f8e"
       opacity="1.00"
       d="m 102.95,65.91 1.18,0.34 c -0.93,6.18 -1.74,12.97 -5.99,17.87 -0.11,-0.57 -0.33,-1.71 -0.45,-2.28 0.76,-3.68 1.62,-7.33 2.13,-11.05 0.53,1.38 -0.85,5.35 1.05,5.05 0.49,-3.34 0.9,-6.74 2.08,-9.93 z"
       id="path105"
       inkscape:connector-curvature="0" />
  </g>
  <g
     id="#4a4a4aff"
     transform="scale(0.18666295,0.18805804)">
    <path
       fill="#4a4a4a"
       opacity="1.00"
       d="M 22.23,85.78 C 18.94,81.66 18.4,75.72 20.91,71.06 c -1.33,11.65 7.68,20.49 13.26,29.76 5.68,4.47 10.8,11.15 18.58,11.55 4.39,-0.81 8.74,0.61 13.14,0.55 5.36,-2.13 10.07,-5.54 15.35,-7.83 -3.6,4.56 -9.81,6.62 -14.85,9.4 -4.84,2.93 -10.21,-0.85 -15.32,0.25 -6.25,-0.91 -10.32,-6.17 -15.13,-9.69 -6.42,-4.9 -8.96,-12.98 -13.71,-19.27 z"
       id="path108"
       inkscape:connector-curvature="0" />
  </g>
  <g
     id="#6c6c6bff"
     transform="scale(0.18666295,0.18805804)">
    <path
       fill="#6c6c6b"
       opacity="1.00"
       d="m 29.23,90.77 c -3.01,-5.21 -7.66,-10.7 -6.58,-17.09 3.23,7.95 6.91,15.76 11.83,22.83 3.53,2.78 7.13,5.49 10.32,8.68 8.04,6 19.1,2.79 28.38,1.91 -4.87,5.05 -13.26,1.96 -19.41,3.41 C 43.15,108.36 34.04,100.34 29.23,90.77 Z"
       id="path111"
       inkscape:connector-curvature="0" />
  </g>
  <g
     id="#989897ff"
     transform="scale(0.18666295,0.18805804)">
    <path
       fill="#989897"
       opacity="1.00"
       d="m 47.01,105.07 c -1.75,-2.03 -5.72,-3.43 -5.1,-6.49 8.23,4.26 17.58,6.09 26.84,5.16 1.8,0.1 3.6,0.2 5.4,0.37 -3.63,2.99 -9.75,1 -14.16,2 -4.31,0.71 -8.89,0.67 -12.98,-1.04 z"
       id="path114"
       inkscape:connector-curvature="0" />
  </g>
  <g
     id="#7b7b7aff"
     transform="scale(0.18666295,0.18805804)">
    <path
       fill="#7b7b7a"
       opacity="1.00"
       d="m 68.75,103.74 c 4.09,-0.97 8.34,-1.45 12.26,-3.06 0.21,0.3 0.64,0.92 0.85,1.23 -2.63,2.13 -5.93,3.2 -8.68,5.19 -9.28,0.88 -20.34,4.09 -28.38,-1.91 0.55,-0.03 1.66,-0.09 2.21,-0.12 4.09,1.71 8.67,1.75 12.98,1.04 4.41,-1 10.53,0.99 14.16,-2 -1.8,-0.17 -3.6,-0.27 -5.4,-0.37 z"
       id="path117"
       inkscape:connector-curvature="0" />
  </g>
  <g
     id="#0f0f0f88"
     transform="scale(0.18666295,0.18805804)">
    <path
       fill="#0f0f0f"
       opacity="0.53"
       d="m 56.99,127.06 c 4.05,-0.06 8.1,-0.1 12.15,-0.13 0.47,0.04 1.4,0.11 1.87,0.14 V 128 h -14 z"
       id="path120"
       inkscape:connector-curvature="0" />
  </g>
  <path
     d="M 11.964844 0 A 11.964286 12.053572 0 0 0 0 12.052734 A 11.964286 12.053572 0 0 0 11.964844 24.107422 A 11.964286 12.053572 0 0 0 23.927734 12.052734 A 11.964286 12.053572 0 0 0 11.964844 0 z M 11.875 0.22265625 A 11.875 11.830358 0 0 1 11.964844 0.22265625 A 11.875 11.830358 0 0 1 23.839844 12.052734 A 11.875 11.830358 0 0 1 11.964844 23.884766 A 11.875 11.830358 0 0 1 0.08984375 12.052734 A 11.875 11.830358 0 0 1 11.875 0.22265625 z "
     style="fill:#ffffff;fill-rule:evenodd;stroke-width:1.06324"
     id="path94" />
</svg>
